<svg xmlns="http://www.w3.org/2000/svg" xml:space="preserve" width="222.783" height="323.556" viewBox="0 0 167.087 242.667"><defs><filter id="e" width="1.661" height="1.329" x="-.331" y="-.164" color-interpolation-filters="sRGB"><feGaussianBlur stdDeviation="14.131"/></filter><filter id="f" width="1.661" height="1.329" x="-.331" y="-.164" color-interpolation-filters="sRGB"><feGaussianBlur stdDeviation="14.131"/></filter><filter id="g" width="1.661" height="1.329" x="-.331" y="-.164" color-interpolation-filters="sRGB"><feGaussianBlur stdDeviation="14.131"/></filter></defs><g style="fill-rule:nonzero;clip-rule:nonzero;stroke:#000;stroke-miterlimit:4"><path d="M166.837 235.548c0 3.777-3.087 6.869-6.871 6.869H7.11c-3.775 0-6.861-3.092-6.861-6.87V7.12C.25 3.343 3.336.25 7.11.25h152.856c3.784 0 6.87 3.093 6.87 6.87z" style="fill:#fff;stroke-width:1"/></g><text xml:space="preserve" x="6.246" y="28.013" style="font-size:32px;font-style:normal;font-weight:400;line-height:125%;letter-spacing:0;word-spacing:0;fill:#000;fill-opacity:1;stroke:none;font-family:Bitstream Vera Sans"><tspan x="6.246" y="28.013" style="font-style:normal;font-variant:normal;font-weight:400;font-stretch:normal;font-family:Arial;-inkscape-font-specification:Arial">A</tspan></text><text xml:space="preserve" x="-160.908" y="-215.097" style="font-size:32px;font-style:normal;font-weight:400;line-height:125%;letter-spacing:0;word-spacing:0;fill:#000;fill-opacity:1;stroke:none;font-family:Bitstream Vera Sans" transform="scale(-1)"><tspan x="-160.908" y="-215.097" style="font-style:normal;font-variant:normal;font-weight:400;font-stretch:normal;font-family:Arial;-inkscape-font-specification:Arial">A</tspan></text><path d="M7.989 3.103C7.747-.954.242-8.59 0-10.5-.242-8.591-7.747-.955-7.989 3.103c-.169 2.868 1.695 4.057 3.39 4.057 1.835-.022 3.35-2.8 3.873-3.341.242.716-1.603 6.682-2.179 6.682h5.811c-.576 0-2.421-5.966-2.179-6.682.457.496 1.797 3.258 3.874 3.341 1.694-.001 3.557-1.189 3.388-4.057" style="fill:#000;fill-opacity:1" transform="matrix(6.30671 0 0 5.7663 83.915 120.04)"/><path d="M122.357 574.383s-13.123-65.067 17.801-92.974c34.761-31.369 150.112-71.195 150.112-71.195s-81.652 84.604-110.112 108.338c-27.21 22.692-57.801 55.83-57.801 55.83" style="fill:#000;fill-opacity:1;stroke:none;filter:url(#e)" transform="matrix(.32621 -.21497 .26709 .31372 -145.53 12.5)"/><path d="M122.357 574.383s-13.123-65.067 17.801-92.974c34.761-31.369 150.112-71.195 150.112-71.195s-81.652 84.604-110.112 108.338c-27.21 22.692-57.801 55.83-57.801 55.83" style="fill:#000;fill-opacity:1;stroke:none;filter:url(#f)" transform="matrix(.49445 -.02458 .22412 .57443 -137.309 -172.304)"/><path d="M122.357 574.383s-13.123-65.067 17.801-92.974c34.761-31.369 150.112-71.195 150.112-71.195s-81.652 84.604-110.112 108.338c-27.21 22.692-57.801 55.83-57.801 55.83" style="fill:#000;fill-opacity:1;stroke:none;filter:url(#g)" transform="matrix(.38584 -.06125 .11388 .39596 -47.589 -97.45)"/><path d="M19.993 106.65v854.281H697.15v-854.28zm351.75 115.219c7.685 55.453 245.972 277.15 253.657 394.937 5.366 83.267-53.772 117.753-107.563 117.782-65.95-2.415-108.515-82.591-123.031-97-7.685 20.787 50.897 194 69.187 194h-184.5c18.29 0 76.872-173.213 69.188-194-16.58 15.686-64.726 96.373-123 97-53.823 0-112.992-34.515-107.625-117.782C125.74 498.99 364.059 277.293 371.743 221.87" style="fill:#fffeff;fill-opacity:1;fill-rule:nonzero;stroke:none" transform="translate(10.084 15.429)scale(.19861)"/><path d="M7.989 3.103C7.747-.954.242-8.59 0-10.5-.242-8.591-7.747-.955-7.989 3.103c-.169 2.868 1.695 4.057 3.39 4.057 1.835-.022 3.35-2.8 3.873-3.341.242.716-1.603 6.682-2.179 6.682h5.811c-.576 0-2.421-5.966-2.179-6.682.457.496 1.797 3.258 3.874 3.341 1.694-.001 3.557-1.189 3.388-4.057" style="fill:#000" transform="matrix(1.5086 0 0 1.37933 16.929 45.066)"/><path d="M7.989 3.103C7.747-.954.242-8.59 0-10.5-.242-8.591-7.747-.955-7.989 3.103c-.169 2.868 1.695 4.057 3.39 4.057 1.835-.022 3.35-2.8 3.873-3.341.242.716-1.603 6.682-2.179 6.682h5.811c-.576 0-2.421-5.966-2.179-6.682.457.496 1.797 3.258 3.874 3.341 1.694-.001 3.557-1.189 3.388-4.057" style="fill:#000" transform="matrix(-1.5086 0 0 -1.37933 150.225 198.044)"/></svg>