<svg xmlns="http://www.w3.org/2000/svg" xml:space="preserve" width="222.783" height="323.556" viewBox="0 0 167.087 242.667"><g style="fill-rule:nonzero;clip-rule:nonzero;stroke:#000;stroke-miterlimit:4"><path d="M166.837 235.548c0 3.777-3.087 6.869-6.871 6.869H7.11c-3.775 0-6.861-3.092-6.861-6.87V7.12C.25 3.343 3.336.25 7.11.25h152.856c3.784 0 6.87 3.093 6.87 6.87z" style="fill:#fff;stroke-width:1"/></g><text xml:space="preserve" x="3.945" y="27.356" style="font-size:32px;font-style:normal;font-weight:400;line-height:125%;letter-spacing:0;word-spacing:0;fill:#df0000;fill-opacity:1;stroke:none;font-family:Bitstream Vera Sans"><tspan x="3.945" y="27.356" style="font-style:italic;font-variant:normal;font-weight:700;font-stretch:normal;font-family:LMMathSymbols9;-inkscape-font-specification:LMMathSymbols9 Bold Italic;fill:#df0000;fill-opacity:1">J</tspan></text><path d="M7.989 3.103C7.747-.954.242-8.59 0-10.5-.242-8.591-7.747-.955-7.989 3.103c-.169 2.868 1.695 4.057 3.39 4.057 1.835-.022 3.35-2.8 3.873-3.341.242.716-1.603 6.682-2.179 6.682h5.811c-.576 0-2.421-5.966-2.179-6.682.457.496 1.797 3.258 3.874 3.341 1.694-.001 3.557-1.189 3.388-4.057" style="fill:#000" transform="rotate(45 -55.462 188.53)scale(3.21193 2.9367)"/><text xml:space="preserve" x="4.273" y="49.051" style="font-size:32px;font-style:normal;font-weight:400;line-height:125%;letter-spacing:0;word-spacing:0;fill:#df0000;fill-opacity:1;stroke:none;font-family:Bitstream Vera Sans"><tspan x="4.273" y="49.051" style="font-size:38.40000152999999727px;font-style:italic;font-variant:normal;font-weight:700;font-stretch:normal;font-family:URW Chancery L;-inkscape-font-specification:URW Chancery L Bold Italic;fill:#df0000;fill-opacity:1">o</tspan></text><text xml:space="preserve" x="2.63" y="76.992" style="font-size:32px;font-style:normal;font-weight:400;line-height:125%;letter-spacing:0;word-spacing:0;fill:#df0000;fill-opacity:1;stroke:none;font-family:Bitstream Vera Sans"><tspan x="2.63" y="76.992" style="font-size:38.40000152999999727px;font-style:italic;font-variant:normal;font-weight:700;font-stretch:normal;font-family:URW Chancery L;-inkscape-font-specification:URW Chancery L Bold Italic;fill:#df0000;fill-opacity:1">k</tspan></text><text xml:space="preserve" x="2.63" y="99.345" style="font-size:32px;font-style:normal;font-weight:400;line-height:125%;letter-spacing:0;word-spacing:0;fill:#df0000;fill-opacity:1;stroke:none;font-family:Bitstream Vera Sans"><tspan x="2.63" y="99.345" style="font-size:38.40000152999999727px;font-style:italic;font-variant:normal;font-weight:700;font-stretch:normal;font-family:URW Chancery L;-inkscape-font-specification:URW Chancery L Bold Italic;fill:#df0000;fill-opacity:1">e</tspan></text><text xml:space="preserve" x="2.301" y="120.383" style="font-size:32px;font-style:normal;font-weight:400;line-height:125%;letter-spacing:0;word-spacing:0;fill:#df0000;fill-opacity:1;stroke:none;font-family:Bitstream Vera Sans"><tspan x="2.301" y="120.383" style="font-size:38.40000152999999727px;font-style:italic;font-variant:normal;font-weight:700;font-stretch:normal;font-family:URW Chancery L;-inkscape-font-specification:URW Chancery L Bold Italic;fill:#df0000;fill-opacity:1">r</tspan></text><path d="M3.676-9C.433-9 0-5.523 0-5.523S-.433-9-3.676-9C-5.946-9-8-7.441-8-4.5-8-.614-1.42 3.294 0 9 1.352 3.299 8-.614 8-4.5 8-7.441 5.946-9 3.676-9" style="fill:#df0000" transform="rotate(-45 145.134 -23.865)scale(3.35788 3.14265)"/><path d="M50.291 22.698s2.375-1.9 2.375-4.534c0-1.542-1.369-4.102-4.534-4.102s-4.534 2.561-4.534 4.102c0 2.634 2.375 4.534 2.375 4.534-2.638-2.055-7.34-.652-7.34 3.455 0 2.056 1.68 4.318 4.317 4.318 3.165 0 4.534-3.455 4.534-3.455s.402 3.938-1.943 6.046h5.182c-2.345-2.107-1.943-6.046-1.943-6.046s1.37 3.455 4.534 3.455c2.64 0 4.318-2.263 4.318-4.318 0-4.107-4.703-5.51-7.34-3.455" style="fill:#000" transform="rotate(225 118.428 130.066)scale(3.03455)"/><path d="M3.243-4.725C1.126-7.59 0-10.5 0-10.5s-1.126 2.91-3.243 5.775C-5.361-1.862-8 0-8 0s2.639 1.861 4.757 4.726C-1.126 7.59 0 10.5 0 10.5s1.126-2.91 3.243-5.774C5.361 1.861 8 0 8 0S5.361-1.862 3.243-4.725" style="fill:#df0000" transform="rotate(-45 247.405 -64.1)scale(3.16079)"/><text xml:space="preserve" x="-163.716" y="-215.002" style="font-size:32px;font-style:normal;font-weight:400;line-height:125%;letter-spacing:0;word-spacing:0;fill:#df0000;fill-opacity:1;stroke:none;font-family:Bitstream Vera Sans" transform="scale(-1)"><tspan x="-163.716" y="-215.002" style="font-style:italic;font-variant:normal;font-weight:700;font-stretch:normal;font-family:LMMathSymbols9;-inkscape-font-specification:LMMathSymbols9 Bold Italic;fill:#df0000;fill-opacity:1">J</tspan></text><text xml:space="preserve" x="-163.387" y="-193.306" style="font-size:32px;font-style:normal;font-weight:400;line-height:125%;letter-spacing:0;word-spacing:0;fill:#df0000;fill-opacity:1;stroke:none;font-family:Bitstream Vera Sans" transform="scale(-1)"><tspan x="-163.387" y="-193.306" style="font-size:38.40000152999999727px;font-style:italic;font-variant:normal;font-weight:700;font-stretch:normal;font-family:URW Chancery L;-inkscape-font-specification:URW Chancery L Bold Italic;fill:#df0000;fill-opacity:1">o</tspan></text><text xml:space="preserve" x="-165.031" y="-165.365" style="font-size:32px;font-style:normal;font-weight:400;line-height:125%;letter-spacing:0;word-spacing:0;fill:#df0000;fill-opacity:1;stroke:none;font-family:Bitstream Vera Sans" transform="scale(-1)"><tspan x="-165.031" y="-165.365" style="font-size:38.40000152999999727px;font-style:italic;font-variant:normal;font-weight:700;font-stretch:normal;font-family:URW Chancery L;-inkscape-font-specification:URW Chancery L Bold Italic;fill:#df0000;fill-opacity:1">k</tspan></text><text xml:space="preserve" x="-165.031" y="-143.012" style="font-size:32px;font-style:normal;font-weight:400;line-height:125%;letter-spacing:0;word-spacing:0;fill:#df0000;fill-opacity:1;stroke:none;font-family:Bitstream Vera Sans" transform="scale(-1)"><tspan x="-165.031" y="-143.012" style="font-size:38.40000152999999727px;font-style:italic;font-variant:normal;font-weight:700;font-stretch:normal;font-family:URW Chancery L;-inkscape-font-specification:URW Chancery L Bold Italic;fill:#df0000;fill-opacity:1">e</tspan></text><text xml:space="preserve" x="-165.36" y="-121.974" style="font-size:32px;font-style:normal;font-weight:400;line-height:125%;letter-spacing:0;word-spacing:0;fill:#df0000;fill-opacity:1;stroke:none;font-family:Bitstream Vera Sans" transform="scale(-1)"><tspan x="-165.36" y="-121.974" style="font-size:38.40000152999999727px;font-style:italic;font-variant:normal;font-weight:700;font-stretch:normal;font-family:URW Chancery L;-inkscape-font-specification:URW Chancery L Bold Italic;fill:#df0000;fill-opacity:1">r</tspan></text></svg>